<svg width="25" height="24" viewBox="0 0 25 24" fill="none" xmlns="http://www.w3.org/2000/svg">
<path d="M12.5 5.33333C11.7089 5.33333 10.9355 5.72433 10.2777 6.45687C9.61992 7.18941 9.10723 8.2306 8.80448 9.44878C8.50173 10.667 8.42252 12.0074 8.57686 13.3006C8.7312 14.5938 9.11216 15.7817 9.67157 16.714C10.231 17.6464 10.9437 18.2813 11.7196 18.5386C12.4956 18.7958 13.2998 18.6638 14.0307 18.1592C14.7616 17.6546 15.3864 16.8001 15.8259 15.7038C16.2654 14.6075 16.5 13.3185 16.5 12C16.5 10.2319 16.0786 8.5362 15.3284 7.28595C14.5783 6.03571 13.5609 5.33333 12.5 5.33333ZM12.5 16C12.0253 16 11.5613 15.7654 11.1666 15.3259C10.772 14.8864 10.4643 14.2616 10.2827 13.5307C10.101 12.7998 10.0535 11.9956 10.1461 11.2196C10.2387 10.4437 10.4673 9.73098 10.8029 9.17157C11.1386 8.61216 11.5662 8.2312 12.0318 8.07686C12.4973 7.92252 12.9799 8.00173 13.4184 8.30448C13.857 8.60723 14.2318 9.11992 14.4955 9.77772C14.7592 10.4355 14.9 11.2089 14.9 12C14.9 13.0609 14.6471 14.0783 14.1971 14.8284C13.747 15.5786 13.1365 16 12.5 16ZM23.7 0H1.3C1.08783 0 0.884344 0.140476 0.734315 0.390525C0.584285 0.640573 0.5 0.979711 0.5 1.33333V22.6667C0.5 23.0203 0.584285 23.3594 0.734315 23.6095C0.884344 23.8595 1.08783 24 1.3 24H23.7C23.9122 24 24.1157 23.8595 24.2657 23.6095C24.4157 23.3594 24.5 23.0203 24.5 22.6667V1.33333C24.5 0.979711 24.4157 0.640573 24.2657 0.390525C24.1157 0.140476 23.9122 0 23.7 0ZM19.065 21.3333H5.935C5.66641 19.8193 5.17481 18.4414 4.50498 17.325C3.83516 16.2087 3.0084 15.3893 2.1 14.9417V9.05833C3.0084 8.61067 3.83516 7.79135 4.50498 6.67497C5.17481 5.5586 5.66641 4.18066 5.935 2.66667H19.065C19.3336 4.18066 19.8252 5.5586 20.495 6.67497C21.1648 7.79135 21.9916 8.61067 22.9 9.05833V14.9417C21.9916 15.3893 21.1648 16.2087 20.495 17.325C19.8252 18.4414 19.3336 19.8193 19.065 21.3333ZM22.9 6.22833C21.9404 5.54065 21.1756 4.26594 20.763 2.66667H22.9V6.22833ZM4.237 2.66667C3.82439 4.26594 3.05956 5.54065 2.1 6.22833V2.66667H4.237ZM2.1 17.7717C3.05956 18.4593 3.82439 19.7341 4.237 21.3333H2.1V17.7717ZM20.763 21.3333C21.1756 19.7341 21.9404 18.4593 22.9 17.7717V21.3333H20.763Z" fill="black"/>
</svg>
