<svg width="27" height="26" viewBox="0 0 27 26" fill="none" xmlns="http://www.w3.org/2000/svg">
<path d="M15 12.9961C15 13.2928 14.912 13.5828 14.7472 13.8295C14.5824 14.0762 14.3481 14.2684 14.074 14.382C13.7999 14.4955 13.4983 14.5252 13.2074 14.4673C12.9164 14.4094 12.6491 14.2666 12.4393 14.0568C12.2296 13.847 12.0867 13.5797 12.0288 13.2888C11.9709 12.9978 12.0006 12.6962 12.1142 12.4221C12.2277 12.148 12.42 11.9138 12.6666 11.7489C12.9133 11.5841 13.2033 11.4961 13.5 11.4961C13.8978 11.4961 14.2794 11.6542 14.5607 11.9355C14.842 12.2168 15 12.5983 15 12.9961ZM8 11.4961C7.70333 11.4961 7.41332 11.5841 7.16664 11.7489C6.91997 11.9138 6.72771 12.148 6.61418 12.4221C6.50065 12.6962 6.47094 12.9978 6.52882 13.2888C6.5867 13.5797 6.72956 13.847 6.93934 14.0568C7.14912 14.2666 7.41639 14.4094 7.70736 14.4673C7.99833 14.5252 8.29994 14.4955 8.57403 14.382C8.84811 14.2684 9.08238 14.0762 9.2472 13.8295C9.41203 13.5828 9.5 13.2928 9.5 12.9961C9.5 12.5983 9.34196 12.2168 9.06066 11.9355C8.77936 11.6542 8.39782 11.4961 8 11.4961ZM19 11.4961C18.7033 11.4961 18.4133 11.5841 18.1666 11.7489C17.92 11.9138 17.7277 12.148 17.6142 12.4221C17.5007 12.6962 17.4709 12.9978 17.5288 13.2888C17.5867 13.5797 17.7296 13.847 17.9393 14.0568C18.1491 14.2666 18.4164 14.4094 18.7074 14.4673C18.9983 14.5252 19.2999 14.4955 19.574 14.382C19.8481 14.2684 20.0824 14.0762 20.2472 13.8295C20.412 13.5828 20.5 13.2928 20.5 12.9961C20.5 12.5983 20.342 12.2168 20.0607 11.9355C19.7794 11.6542 19.3978 11.4961 19 11.4961ZM26.5 12.9961C26.5005 15.2405 25.9199 17.4469 24.8147 19.4003C23.7095 21.3538 22.1174 22.9878 20.1934 24.1434C18.2693 25.299 16.0788 25.9368 13.8352 25.9946C11.5915 26.0525 9.37107 25.5285 7.39 24.4736L3.13375 25.8924C2.78136 26.0099 2.4032 26.027 2.04166 25.9416C1.68012 25.8563 1.34948 25.672 1.08681 25.4093C0.824144 25.1466 0.639818 24.816 0.554497 24.4545C0.469176 24.0929 0.48623 23.7148 0.60375 23.3624L2.0225 19.1061C1.09519 17.3627 0.577246 15.4309 0.507997 13.4573C0.438747 11.4838 0.820007 9.52047 1.62284 7.7163C2.42567 5.91213 3.62897 4.31456 5.1414 3.04487C6.65383 1.77518 8.43564 0.866729 10.3516 0.388476C12.2675 -0.0897758 14.2672 -0.12526 16.199 0.284718C18.1307 0.694696 19.9436 1.53936 21.5001 2.7546C23.0566 3.96983 24.3158 5.5237 25.1822 7.29825C26.0485 9.0728 26.4992 11.0214 26.5 12.9961ZM24.5 12.9961C24.4995 11.3088 24.1109 9.64417 23.3641 8.13106C22.6174 6.61796 21.5325 5.29693 20.1935 4.27017C18.8545 3.24342 17.2973 2.53847 15.6422 2.20987C13.9872 1.88126 12.2787 1.93781 10.649 2.37513C9.01935 2.81245 7.51212 3.61883 6.24394 4.73187C4.97577 5.84492 3.98065 7.23479 3.33558 8.79396C2.6905 10.3531 2.41277 12.0398 2.52387 13.7235C2.63496 15.4072 3.13191 17.0427 3.97625 18.5036C4.04712 18.6263 4.09112 18.7626 4.10534 18.9035C4.11956 19.0445 4.10368 19.1868 4.05875 19.3211L2.5 23.9961L7.175 22.4374C7.27683 22.4027 7.38367 22.3849 7.49125 22.3849C7.66688 22.3852 7.83933 22.4318 7.99125 22.5199C9.6635 23.4874 11.5611 23.9974 13.4931 23.9987C15.425 23.9999 17.3232 23.4922 18.9967 22.5268C20.6702 21.5614 22.0599 20.1723 23.026 18.4992C23.992 16.8261 24.5004 14.9281 24.5 12.9961Z" fill="black"/>
</svg>
