<svg width="24" height="24" viewBox="0 0 24 24" fill="none" xmlns="http://www.w3.org/2000/svg">
<path d="M23.0401 9.99918H9.37162L22.3201 6.43793C22.4427 6.40429 22.5576 6.3457 22.6583 6.26553C22.759 6.18537 22.8435 6.08522 22.9069 5.97086C22.9702 5.85651 23.0112 5.73022 23.0275 5.59927C23.0438 5.46833 23.035 5.33532 23.0017 5.20793L22.0225 1.45793C21.8877 0.953417 21.5676 0.524514 21.1315 0.264114C20.6953 0.00371525 20.1782 -0.0672161 19.6922 0.0666827L1.41847 5.09168C1.17516 5.15748 0.946888 5.27318 0.74703 5.43201C0.547171 5.59084 0.379739 5.78961 0.254533 6.01668C0.128629 6.24097 0.0472843 6.48933 0.0153338 6.74701C-0.0166167 7.00469 0.00147819 7.26643 0.0685435 7.51668L0.961293 10.9442C0.961293 10.9617 0.961293 10.9804 0.961293 10.9992V21.9992C0.961293 22.5296 1.16357 23.0383 1.52362 23.4134C1.88367 23.7885 2.372 23.9992 2.88119 23.9992H22.0801C22.5893 23.9992 23.0776 23.7885 23.4377 23.4134C23.7977 23.0383 24 22.5296 24 21.9992V10.9992C24 10.734 23.8989 10.4796 23.7188 10.2921C23.5388 10.1045 23.2946 9.99918 23.0401 9.99918ZM20.1794 1.99918L20.8994 4.75793L18.1851 5.50793L14.8109 3.47793L20.1794 1.99918ZM12.1771 4.19918L15.5513 6.22918L11.1187 7.44793L7.74451 5.42043L12.1771 4.19918ZM2.6496 9.77668L1.92964 7.01668L5.10946 6.14168L8.48367 8.17418L2.6496 9.77668ZM22.0801 21.9992H2.88119V11.9992H22.0801V21.9992Z" fill="black"/>
</svg>
