<svg width="24" height="24" viewBox="0 0 24 24" fill="none" xmlns="http://www.w3.org/2000/svg">
<path d="M23.7185 4.12143L19.8786 0.281546C19.7894 0.192292 19.6835 0.121485 19.567 0.0731753C19.4505 0.0248655 19.3256 0 19.1994 0C19.0732 0 18.9483 0.0248655 18.8318 0.0731753C18.7152 0.121485 18.6094 0.192292 18.5202 0.281546L7.00058 11.8012C6.91146 11.8904 6.84079 11.9963 6.79262 12.1128C6.74444 12.2294 6.71969 12.3543 6.71979 12.4804V16.3202C6.71979 16.5748 6.82093 16.819 7.00096 16.999C7.18099 17.1791 7.42516 17.2802 7.67976 17.2802H11.5196C11.6457 17.2803 11.7706 17.2556 11.8872 17.2074C12.0037 17.1592 12.1096 17.0885 12.1988 16.9994L23.7185 5.47978C23.8077 5.39063 23.8785 5.28475 23.9268 5.16822C23.9751 5.05168 24 4.92676 24 4.8006C24 4.67445 23.9751 4.54953 23.9268 4.43299C23.8785 4.31645 23.8077 4.21058 23.7185 4.12143ZM11.1225 15.3603H8.63973V12.8776L16.3195 5.19779L18.8022 7.68051L11.1225 15.3603ZM20.1594 6.32336L17.6766 3.84063L19.1994 2.31788L21.6821 4.8006L20.1594 6.32336ZM23.0393 11.5204V22.0801C23.0393 22.5893 22.837 23.0776 22.4769 23.4377C22.1169 23.7977 21.6285 24 21.1193 24H1.91994C1.41074 24 0.922396 23.7977 0.562337 23.4377C0.202279 23.0776 0 22.5893 0 22.0801V2.88066C0 2.37146 0.202279 1.88312 0.562337 1.52306C0.922396 1.163 1.41074 0.960725 1.91994 0.960725H12.4796C12.7342 0.960725 12.9784 1.06186 13.1584 1.24189C13.3384 1.42192 13.4396 1.66609 13.4396 1.92069C13.4396 2.17529 13.3384 2.41947 13.1584 2.5995C12.9784 2.77953 12.7342 2.88066 12.4796 2.88066H1.91994V22.0801H21.1193V11.5204C21.1193 11.2658 21.2205 11.0216 21.4005 10.8416C21.5805 10.6616 21.8247 10.5604 22.0793 10.5604C22.3339 10.5604 22.5781 10.6616 22.7581 10.8416C22.9381 11.0216 23.0393 11.2658 23.0393 11.5204Z" fill="black"/>
</svg>
